<svg width="245" height="255" viewBox="0 0 245 255" fill="none" xmlns="http://www.w3.org/2000/svg">
<path opacity="0.05" d="M48.7518 252.998C32.1246 253.167 7.31166 244.011 11.4898 223.493C14.3036 209.588 2.53666 196.532 0.404968 182.542C-2.0678 166.434 6.97059 149.307 22.4041 140.914C27.8612 137.946 34.3416 135.827 38.0934 131.079C49.7751 116.666 30.1635 98.6914 37.667 79.3607C42.0157 68.2541 54.7206 62.1496 71.6889 63.167C89.0835 64.2692 105.796 61.0475 107.928 45.3625C109.718 32.7297 109.548 23.8274 123.02 12.9751C145.36 -5.08381 201.211 -7.45776 212.551 26.4557C215.877 36.2906 225.256 57.8257 257.914 39.5972C283.324 25.3535 343.523 41.8016 324.252 82.8369C316.663 99.0305 331.585 104.202 354.693 112.596C372.002 118.87 386.498 150.155 351.026 177.032C345.91 180.847 357.848 191.784 362.793 195.769C391.273 218.66 364.499 252.404 337.725 252.998C337.725 252.998 65.3791 252.828 48.7518 252.998ZM88.1456 33.4928C78.6809 31.3732 75.6965 41.1233 76.0376 48.1603C76.1228 49.5169 76.2081 50.9582 76.805 52.1452C77.7429 53.8408 79.6188 54.943 81.4947 55.4517C84.5643 56.2996 87.9751 56.13 91.13 55.4517C93.1764 55.0278 95.2228 54.3495 96.6724 52.9082C102.471 47.1429 95.2228 35.0189 88.1456 33.4928ZM249.728 29.3384C249.558 31.7971 247.596 33.9167 245.294 34.9341C242.992 36.0363 240.349 36.2906 237.791 36.4602C234.124 36.7145 229.861 36.7145 227.388 34.0862C225.683 32.3058 225.256 29.5927 225.597 27.2188C226.621 21.1143 230.543 15.0947 237.705 15.8578C243.163 16.536 249.984 24.1666 249.728 29.3384ZM258.681 14.6708C257.829 15.2643 256.635 15.4338 255.612 15.1795C255.1 15.0947 254.503 14.8404 254.077 14.5012C251.007 12.2968 252.201 8.14244 256.123 8.56636C259.193 8.90549 262.177 12.3816 258.681 14.6708ZM351.453 90.9761C352.476 92.4174 353.243 94.1979 352.646 95.8088C352.22 96.9957 351.112 97.8436 350.003 98.3523C347.616 99.4545 344.717 99.2001 342.244 98.1827C339.771 97.2501 337.639 95.6392 335.593 93.9435C334.655 93.1805 333.802 92.4174 333.291 91.4C332.95 90.637 332.864 89.7891 332.864 89.0261C332.779 87.5847 332.95 86.1434 333.376 84.7869C333.973 83.0064 335.081 81.3955 336.19 79.9542C337.895 77.7498 340.368 75.1215 343.608 75.6302C345.569 75.9694 345.996 77.0716 346.081 78.852C346.081 80.8021 345.655 82.6673 346.422 84.6173C347.275 87.1608 349.918 88.8565 351.453 90.9761ZM16.009 132.69C12.8541 135.318 7.4822 134.894 4.75363 131.757C-4.79637 120.735 3.64515 93.6044 21.4661 97.5044C28.117 98.9458 33.1478 106.322 30.1635 112.766C28.4581 116.411 23.9389 118.276 21.8072 121.668C19.5902 125.229 19.4197 129.892 16.009 132.69Z" fill="white"/>
<path d="M182.343 169.729C182.343 166.249 180.048 163.288 179.011 159.956C170.497 131.006 157.466 150.109 159.169 133.376C160.575 119.752 141.029 113.163 139.4 119.086C138.141 123.824 131.922 126.416 128.961 122.418C125.184 117.383 126.665 110.201 123.333 104.944C121.408 101.909 117.781 99.7616 114.004 99.4654C110.599 99.1692 107.045 100.206 103.713 99.3173C97.7898 97.6884 94.7542 90.5806 88.6829 89.7662C88.1646 89.6922 87.6464 89.6922 87.1281 89.9143C86.1656 90.2845 85.7954 91.3951 85.5733 92.3576C84.9069 94.949 84.3146 97.8365 85.8694 100.058C87.2762 102.057 90.0897 102.871 91.4224 104.87C92.7551 106.869 92.3109 109.535 91.4964 111.756C90.682 113.977 89.4974 116.272 89.6454 118.642C89.7935 122.047 92.607 125.009 95.8648 126.416C99.1966 127.897 102.899 128.119 106.601 128.119C107.563 128.119 108.526 128.119 109.414 128.415C112.302 129.377 112.968 133.302 111.117 135.597C110.377 136.485 109.414 137.226 108.896 138.188C107.489 140.78 110.006 143.963 112.968 144.852C115.93 145.666 119.113 145 122.223 144.63C125.333 144.259 128.812 144.333 131.108 146.258C133.995 148.776 133.699 153.07 135.402 156.476C137.179 160.104 141.251 162.325 145.397 163.288C149.544 164.25 153.838 164.102 158.132 164.324C167.091 164.768 176.05 166.693 183.75 170.988" fill="#4DC591"/>
<path opacity="0.2" d="M107.004 140.77C109.373 148.84 116.703 155.651 123.293 160.982C130.252 166.609 138.027 171.274 145.875 175.716C162.312 185.045 179.489 193.708 192.224 207.479C192.594 207.849 193.186 207.331 192.816 206.961C181.636 193.856 165.717 185.489 150.465 177.123C142.765 172.829 134.991 168.534 127.883 163.352C119.887 157.577 110.262 150.024 107.3 140.695C107.226 140.547 106.93 140.621 107.004 140.77Z" fill="#444472"/>
<path d="M144.744 191.084C143.189 193.749 140.597 195.6 138.08 197.377C132.601 201.153 126.826 204.633 120.459 206.484C118.83 207.002 117.127 207.373 115.424 207.225C113.721 207.077 112.018 206.41 110.981 205.003C109.575 203.152 109.723 200.561 109.427 198.192C109.353 197.451 109.13 196.711 108.612 196.193C107.354 195.008 105.428 196.119 104.096 197.155C102.985 198.044 101.875 198.932 100.838 199.821C99.5053 200.931 97.7284 202.042 96.0995 201.375C94.7668 200.783 94.1744 199.08 94.5446 197.673C94.9148 196.267 96.0254 195.156 97.2101 194.268C98.3947 193.453 99.8015 192.787 100.986 191.898C101.282 191.676 101.578 191.454 101.652 191.158C101.949 190.344 101.06 189.603 100.32 189.307C98.5428 188.641 96.5437 188.641 94.8408 189.455C93.1379 190.195 91.8792 191.602 90.3984 192.713C88.9176 193.823 87.1407 194.786 85.3637 194.416C83.6608 194.046 82.2541 192.639 81.3656 191.084C80.0329 188.863 81.3656 184.272 85.2156 184.198C87.3628 184.124 89.5099 184.198 91.6571 184.198C93.0639 184.198 94.8408 183.828 95.0629 182.421C95.211 181.311 94.0264 180.496 92.9898 180.052C88.9176 178.349 84.2531 179.015 79.8848 178.423C73.1472 177.535 75.6645 166.651 83.6608 166.799C85.7339 166.799 87.807 167.391 89.658 168.354C91.8052 169.464 93.6562 171.241 96.0254 171.834C96.8399 172.056 97.8024 172.13 98.6168 171.834C99.4313 171.463 100.024 170.575 99.8015 169.686C99.5793 168.798 98.6909 168.354 97.9505 167.836C95.8774 166.281 94.9889 163.393 95.211 160.802C95.3591 159.247 95.8774 157.618 97.2101 156.952C98.8389 156.063 100.912 156.952 102.097 158.358C103.355 159.691 103.948 161.468 104.91 163.023C105.873 164.578 107.354 166.059 109.204 166.133C109.501 166.133 109.797 166.133 110.093 165.91C110.315 165.762 110.389 165.54 110.537 165.318C111.204 163.689 110.611 161.838 110.389 160.061C110.167 158.284 110.759 156.137 112.462 155.693C113.869 155.323 115.276 156.359 115.942 157.692C116.608 158.951 116.831 160.432 117.423 161.764C119.052 165.836 124.086 168.132 128.233 166.799C129.417 166.429 130.528 165.762 131.713 165.54C133.712 165.17 135.859 165.985 137.488 167.243C139.117 168.576 140.301 170.279 141.412 172.056C144.225 176.572 146.743 182.051 144.892 187.086" fill="#4DC591"/>
<g opacity="0.41">
<path opacity="0.41" d="M92.2495 180.602C92.4716 180.528 92.6937 180.528 92.9159 180.454C92.6937 180.528 92.4716 180.528 92.2495 180.602C92.2495 180.602 92.2495 180.528 92.2495 180.602Z" fill="#444472"/>
<path opacity="0.41" d="M94.9889 179.861C94.3225 180.083 93.6562 180.306 92.9158 180.454C93.6562 180.38 94.3225 180.157 94.9889 179.861Z" fill="#444472"/>
</g>
<path d="M169.325 199.976C169.977 195.784 173.067 192.561 174.763 188.717C189.62 155.114 200.098 180.634 201.453 160.06C202.58 143.259 225.084 138.789 225.726 146.253C226.178 152.157 232.442 156.408 236.458 152.124C241.549 146.707 241.309 137.771 245.98 131.931C248.688 128.596 253.039 126.645 257.181 126.881C260.953 127.109 264.615 129.038 268.403 128.526C275.147 127.603 279.807 119.496 286.573 119.625C287.151 119.607 287.741 119.694 288.207 120.059C289.186 120.732 289.408 122.129 289.455 123.389C289.684 126.578 289.813 130.254 287.629 132.681C285.731 134.863 282.521 135.357 280.682 137.584C278.784 139.766 278.817 143.084 279.216 145.936C279.673 148.834 280.5 151.74 279.95 154.602C279.124 158.657 275.547 161.781 271.627 162.942C267.765 164.148 263.598 163.704 259.672 163.073C258.653 162.933 257.575 162.747 256.49 162.932C253.144 163.601 251.652 168.265 253.187 171.348C253.754 172.545 254.724 173.588 255.096 174.914C256.09 178.327 252.759 181.737 249.387 182.198C245.969 182.718 242.682 181.271 239.4 180.298C236.118 179.325 232.353 178.727 229.482 180.71C225.83 183.209 225.317 188.545 222.868 192.27C220.249 196.332 215.378 198.347 210.675 198.706C206.031 199.111 201.339 198.256 196.685 197.713C187.032 196.827 178.515 196.172 169.325 199.976Z" fill="#4DC591"/>
<path d="M158.928 197.711C165.95 190.217 173.046 182.724 178.523 174.032C187.301 160.111 191.512 143.412 190.538 126.967C190.404 125.188 189.757 122.888 187.98 122.873C187.166 122.866 186.496 123.305 185.899 123.818C184.334 125.064 182.916 126.459 181.718 128.004C180.894 129.108 179.847 130.358 178.516 130.199C177.554 130.117 176.895 129.297 176.457 128.479C174.268 124.536 175.569 119.512 177.969 115.756C180.37 112 183.801 108.918 186.202 105.088C188.603 101.258 189.83 96.2332 187.566 92.3642C186.982 91.3968 186.101 90.501 184.99 90.4918C184.472 90.4875 184.026 90.706 183.58 90.9244C178.673 93.3271 176.847 99.3094 174.511 104.251C174.284 104.767 173.909 105.357 173.389 105.574C172.572 105.864 171.763 105.191 171.251 104.52C168.617 100.648 170.955 95.5585 172.915 91.2803C175.554 85.5269 177.534 78.9535 175.733 72.8671C175.3 71.5308 174.645 70.1926 173.466 69.4424C170.666 67.7903 167.088 70.7223 166.469 73.901C165.851 77.0797 166.86 80.3459 166.907 83.6042C166.9 84.4186 166.82 85.2324 166.222 85.8198C165.253 86.7003 163.555 86.0938 162.898 84.9778C162.24 83.8617 162.326 82.4556 162.485 81.1242C163.385 70.7657 163.924 59.3677 157.476 51.1696C156.817 50.3497 156.083 49.5291 155.049 49.2244C153.054 48.6896 151.117 50.2284 150.139 51.9973C147.509 56.6402 148.72 62.4996 150.826 67.4038C152.933 72.308 155.93 76.9235 156.924 82.1147C157.279 83.9687 157.336 85.9683 156.582 87.665C155.827 89.3617 154.039 90.7537 152.189 90.5903C149.748 90.348 148.213 87.8919 147.195 85.6622C146.321 83.8779 145.447 82.0937 144.573 80.3834C144.063 79.3426 143.333 78.1519 142.148 78.1421C140.668 78.0558 139.912 79.9746 139.899 81.5294C139.863 85.8976 142.272 89.9899 145.356 93.1252C148.366 96.2599 152.047 98.7338 155.43 101.575C156.312 102.323 157.194 103.145 157.704 104.186C158.359 105.524 158.271 107.152 157.963 108.63C157.199 111.512 155.327 114.014 152.723 115.473C150.789 116.568 148.564 117.067 146.849 118.46C143.943 120.731 143.165 125.241 145.212 128.368C146.966 131.122 150.288 132.334 153.468 132.879C156.647 133.424 159.979 133.377 163.081 134.365C164.484 134.821 165.886 135.425 166.69 136.617C167.861 138.329 167.545 140.622 166.716 142.466C165.434 145.269 163.119 147.619 160.296 148.781C157.695 149.87 154.806 150.068 152.133 150.934C149.461 151.727 146.707 153.481 146.018 156.215C145.023 160.205 148.844 163.716 152.53 165.598C156.217 167.405 160.573 168.922 162.319 172.639C163.557 175.167 163.162 178.199 162.621 180.934C161.461 186.922 159.562 192.682 156.999 198.213" fill="#4DC591"/>
<path d="M224.525 129.407C227.709 126.964 230.448 123.78 232.299 120.078C234.15 116.302 234.891 112.008 235.483 107.713C236.075 102.975 236.519 98.2364 236.668 93.4238C229.56 94.4604 222.526 95.8671 215.862 98.6066C209.199 101.346 202.757 105.27 198.241 111.193C190.467 121.411 190.763 134.886 190.763 134.886C190.763 134.886 207.274 142.438 224.525 129.407Z" fill="#4DC591"/>
<g opacity="0.41">
<path opacity="0.41" d="M208.364 146.322C208.29 146.619 208.216 146.841 208.142 147.137C208.216 146.841 208.29 146.619 208.29 146.322C208.29 146.248 208.364 146.322 208.364 146.322Z" fill="#444472"/>
<path opacity="0.41" d="M207.254 149.654C207.55 148.84 207.846 148.025 208.142 147.137C207.92 148.025 207.624 148.84 207.254 149.654Z" fill="#444472"/>
<path opacity="0.47" d="M190.595 186.378C196.814 194.744 203.33 203.259 212.807 207.553C211.104 201.556 209.549 195.485 208.29 189.339C201.775 183.342 196.814 175.938 191.928 168.534C191.854 168.46 192.002 168.386 192.002 168.46C196.962 175.346 201.997 182.084 207.994 188.007C206.143 178.678 204.885 169.201 204.44 159.65C204.366 159.65 204.292 159.65 204.292 159.575C202.145 155.503 200.664 151.135 200.072 146.544C200.072 146.47 200.146 146.47 200.146 146.544C200.886 150.987 202.293 155.133 204.44 159.057C204.366 157.502 204.366 155.873 204.292 154.319C204.218 154.245 204.144 154.171 204.218 154.022L204.292 153.948C204.292 151.283 204.292 148.618 204.44 145.878C204.44 145.804 204.514 145.878 204.514 145.878C204.44 148.47 204.44 151.135 204.514 153.726C205.551 152.616 206.588 151.209 207.254 149.728C206.588 151.357 205.773 152.838 204.514 154.171C204.737 162.611 205.699 171.052 207.106 179.344C214.732 174.309 217.175 164.98 221.395 157.206C221.395 157.132 221.469 157.206 221.469 157.206C217.323 165.128 215.102 174.828 207.402 179.862C207.328 179.936 207.254 179.936 207.18 179.936C207.698 182.972 208.29 185.934 208.957 188.969C209.105 189.117 209.105 189.265 209.031 189.413C209.623 192.005 210.215 194.522 210.882 197.04C218.286 191.413 224.431 184.453 228.725 175.864C228.725 175.79 228.799 175.864 228.799 175.864C224.801 184.675 218.878 192.227 211.03 197.484C212.363 202.741 213.843 207.923 215.472 213.106C223.543 208.145 231.243 202.074 233.686 192.079C233.686 192.005 233.76 192.079 233.76 192.079C231.465 202.222 223.765 208.516 215.694 213.698C216.213 215.327 216.731 216.882 217.249 218.511C217.471 219.177 216.509 219.548 216.287 218.881C215.102 215.327 214.066 211.773 213.029 208.22C203.034 204.073 196.666 195.337 190.521 186.452C190.447 186.378 190.521 186.304 190.595 186.378Z" fill="#444472"/>
</g>
<path d="M194.665 102.029L144.342 212.288L146.43 213.241L196.753 102.982L194.665 102.029Z" fill="#00664F"/>
<path d="M143.95 215.846C142.247 215.105 141.506 213.032 142.247 211.329C142.987 209.626 145.06 208.886 146.763 209.626C175.491 222.731 209.475 210.071 222.58 181.343C235.685 152.616 223.024 118.632 194.297 105.527C192.594 104.786 191.853 102.713 192.594 101.01C193.334 99.3073 195.407 98.5669 197.11 99.3073C229.169 113.967 243.385 151.95 228.725 184.083C214.065 216.364 176.083 230.506 143.95 215.846Z" fill="#00664F"/>
<path d="M170.53 211.255C200.135 211.255 224.135 187.255 224.135 157.65C224.135 128.045 200.135 104.046 170.53 104.046C140.925 104.046 116.925 128.045 116.925 157.65C116.925 187.255 140.925 211.255 170.53 211.255Z" fill="#B0DDC9"/>
<path d="M219.322 179.937C217.471 184.009 215.176 187.711 212.511 191.117C206.143 193.782 199.035 194.67 192.224 193.486C191.335 193.338 190.447 193.116 189.78 192.523C187.781 190.746 189.484 187.563 189.484 184.897C189.484 182.676 188.152 180.677 186.893 178.826C184.079 174.68 181.266 169.571 182.969 164.758C184.672 159.946 190.373 157.354 191.854 152.468C193.186 147.803 190.151 142.991 190.077 138.104C190.003 134.328 191.854 130.7 194.445 128.035C197.11 125.369 200.516 123.592 204.07 122.334C205.921 121.667 207.994 121.223 209.993 121.223C224.135 136.697 228.577 159.724 219.322 179.937ZM154.241 207.701C156.981 206.369 159.276 203.851 159.794 200.89C160.313 197.632 158.684 194.448 156.685 191.857C154.612 189.266 152.168 187.044 150.465 184.231C149.725 183.046 149.207 181.714 149.207 180.307C149.281 176.457 153.427 173.791 153.871 170.015C154.315 166.683 151.65 163.648 148.688 162.167C145.653 160.686 142.247 160.316 138.989 159.428C135.732 158.539 132.474 156.762 131.141 153.652C129.512 149.728 131.585 145.064 129.364 141.362C127.957 138.993 124.255 137.438 121.072 136.92C109.892 163.5 121.812 194.374 148.244 206.443C149.799 207.109 151.28 207.775 152.835 208.294C153.353 208.146 153.797 207.924 154.241 207.701ZM139.359 114.041C139.508 114.634 139.73 115.226 140.026 115.744C142.617 121.223 148.17 125.369 148.985 131.367C149.207 132.995 149.133 134.846 150.169 136.105C150.688 136.771 151.502 137.142 152.316 137.512C159.054 140.325 167.495 138.326 172.159 132.699C176.675 127.22 177.49 119.594 181.044 113.449C182.08 111.672 183.339 109.969 183.339 107.896C183.339 107.007 183.043 106.193 182.599 105.453C167.346 101.899 151.65 105.231 139.359 114.041Z" fill="#2EA889"/>
<path d="M175.787 220.362H165.273V245.387H175.787V220.362Z" fill="#00664F"/>
<path d="M212.066 254.346H128.994C126.254 254.346 124.107 252.125 124.107 249.46C124.107 246.72 126.328 244.573 128.994 244.573H211.992C214.732 244.573 216.879 246.794 216.879 249.46C216.953 252.125 214.732 254.346 212.066 254.346Z" fill="#00664F"/>
<path d="M325.939 201.482C331.196 201.482 335.49 197.188 335.49 191.931C335.49 186.674 331.196 182.38 325.939 182.38H214.139C217.841 188.747 217.841 195.114 214.139 201.482H325.939Z" fill="#EDEDED"/>
<path d="M325.939 201.482C331.344 201.482 335.713 196.966 335.491 191.487C335.268 186.378 330.826 182.454 325.717 182.454H212.659C211.844 182.454 211.178 181.787 211.178 180.973C211.178 180.159 211.844 179.492 212.659 179.492H325.939C332.825 179.492 338.378 185.045 338.378 191.931C338.378 198.817 332.825 204.37 325.939 204.37H212.659C211.844 204.37 211.178 203.703 211.178 202.889C211.178 202.074 211.844 201.408 212.659 201.408H325.939V201.482Z" fill="#FFC278"/>
<path d="M331.493 184.231L322.46 184.305L305.505 184.453L271.52 184.527L237.536 184.453L220.581 184.379L215.102 184.305C215.028 184.231 215.028 184.157 214.954 184.083L220.507 184.009L237.462 183.935L271.446 183.861L305.431 183.935L322.386 184.009L331.122 184.083C331.344 184.083 331.419 184.157 331.493 184.231ZM333.714 186.452C333.714 186.378 333.64 186.378 333.64 186.304L322.534 186.156L305.579 186.082L271.594 186.008L237.61 186.082L220.655 186.156L215.991 186.23C215.991 186.304 216.065 186.378 216.065 186.526L220.655 186.6L237.61 186.674L271.594 186.748L305.505 186.674L322.46 186.6L333.714 186.452ZM334.898 188.673C334.898 188.673 334.898 188.599 334.824 188.599L322.46 188.451L305.505 188.377L271.52 188.303L237.536 188.377L220.581 188.451L216.583 188.525C216.583 188.599 216.583 188.747 216.657 188.821L220.655 188.895L237.61 188.969L271.594 189.043L305.505 188.895L322.46 188.821L334.898 188.673ZM214.954 199.927L220.507 200.001L237.462 200.075L271.446 200.149L305.431 200.075L322.386 200.001L331.122 199.927C331.196 199.853 331.27 199.779 331.344 199.779L322.312 199.705L305.357 199.631L271.372 199.557L237.388 199.631L220.433 199.705L214.954 199.779C215.028 199.705 215.028 199.853 214.954 199.927ZM333.64 197.632C333.64 197.558 333.714 197.558 333.714 197.484L322.534 197.336L305.579 197.262L271.594 197.188L237.61 197.262L220.655 197.336L216.065 197.41C216.065 197.484 215.991 197.558 215.991 197.706L220.655 197.78L237.61 197.854L271.594 197.928L305.579 197.854L322.534 197.78L333.64 197.632ZM334.824 195.337C334.824 195.337 334.824 195.263 334.898 195.263L322.534 195.115L305.579 195.041L271.594 194.967L237.61 195.041L220.655 195.115L216.657 195.189C216.657 195.263 216.657 195.411 216.583 195.485L220.581 195.559L237.536 195.633L271.52 195.707L305.505 195.633L322.46 195.559L334.824 195.337ZM335.417 193.116V193.042L322.46 192.893L305.505 192.819L271.52 192.745L237.536 192.819L220.581 192.893L216.879 192.967C216.879 193.042 216.879 193.19 216.879 193.264L220.581 193.338L237.536 193.412L271.52 193.486L305.505 193.338L322.46 193.264L335.417 193.116ZM335.417 190.894V190.82L322.534 190.672L305.579 190.598L271.594 190.524L237.61 190.598L220.655 190.672L216.953 190.746C216.953 190.82 216.953 190.968 216.953 191.042L220.655 191.116L237.61 191.191L271.594 191.265L305.505 191.116L322.46 191.042L335.417 190.894Z" fill="#E1E3EF"/>
<path d="M226.208 200.668L231.095 197.854L235.981 200.668V188.377H226.208V200.668Z" fill="#FFC278"/>
<path d="M223.691 226.433C218.434 226.433 214.139 222.139 214.139 216.882C214.139 211.625 218.434 207.331 223.691 207.331H335.49C331.788 213.698 331.788 220.066 335.49 226.433H223.691Z" fill="#EDEDED"/>
<path d="M223.691 226.433C218.286 226.433 213.917 221.917 214.14 216.438C214.362 211.329 218.804 207.405 223.913 207.405H336.897C337.712 207.405 338.378 206.739 338.378 205.924C338.378 205.11 337.712 204.444 336.897 204.444H223.617C216.731 204.444 211.178 209.997 211.178 216.882C211.178 223.768 216.731 229.321 223.617 229.321H336.897C337.712 229.321 338.378 228.655 338.378 227.84C338.378 227.026 337.712 226.359 336.897 226.359H223.691V226.433Z" fill="#FF7648"/>
<path d="M218.36 208.96L227.096 208.886L244.051 208.812L278.036 208.738L312.02 208.812L328.975 208.886L334.528 208.96C334.454 209.034 334.454 209.108 334.38 209.182L328.901 209.256L311.946 209.33L277.962 209.404L243.977 209.33L227.022 209.256L217.989 209.182C218.212 209.108 218.286 209.034 218.36 208.96ZM227.096 211.477L244.051 211.551L278.036 211.625L312.02 211.551L328.975 211.477L333.565 211.403C333.565 211.329 333.639 211.255 333.639 211.107L328.975 211.033L312.02 210.959L278.036 210.885L244.051 210.959L227.096 211.033L215.99 211.181C215.99 211.255 215.916 211.255 215.916 211.329L227.096 211.477ZM227.096 213.698L244.051 213.772L278.036 213.847L312.02 213.772L328.975 213.698L332.973 213.624C332.973 213.55 332.973 213.402 333.047 213.328L329.049 213.254L312.094 213.18L278.11 213.106L244.125 213.18L227.17 213.254L214.806 213.402C214.806 213.402 214.806 213.476 214.732 213.476L227.096 213.698ZM334.528 224.582L329.049 224.508L312.094 224.434L278.11 224.36L244.125 224.434L227.17 224.508L218.138 224.582C218.212 224.656 218.286 224.73 218.36 224.73L227.096 224.804L244.051 224.878L278.036 224.952L312.02 224.878L328.975 224.804L334.528 224.73C334.602 224.804 334.602 224.656 334.528 224.582ZM227.096 222.657L244.051 222.731L278.036 222.805L312.02 222.731L328.975 222.657L333.639 222.583C333.639 222.509 333.565 222.435 333.565 222.287L328.975 222.213L312.02 222.139L278.036 222.065L244.051 222.139L227.096 222.213L215.916 222.361C215.916 222.435 215.99 222.435 215.99 222.509L227.096 222.657ZM227.096 220.436L244.051 220.51L278.036 220.584L312.02 220.51L328.975 220.436L332.973 220.362C332.973 220.288 332.973 220.14 332.899 220.066L328.901 219.992L311.946 219.918L277.962 219.844L243.977 219.918L227.022 219.992L214.658 220.14C214.658 220.14 214.658 220.214 214.732 220.214L227.096 220.436ZM227.096 218.215L244.051 218.289L278.036 218.363L312.02 218.289L328.975 218.215L332.677 218.141C332.677 218.067 332.677 217.919 332.677 217.845L328.975 217.771L312.02 217.697L278.036 217.623L244.051 217.697L227.096 217.771L214.139 217.919V217.993L227.096 218.215ZM227.096 215.994L244.051 216.068L278.036 216.142L312.02 216.068L328.975 215.994L332.677 215.92C332.677 215.846 332.677 215.698 332.677 215.623L328.975 215.549L312.02 215.475L278.036 215.401L244.051 215.475L227.096 215.549L214.213 215.698V215.772L227.096 215.994Z" fill="#E1E3EF"/>
<path d="M325.939 251.385C331.196 251.385 335.49 247.09 335.49 241.834C335.49 236.577 331.196 232.282 325.939 232.282H214.139C217.841 238.65 217.841 245.017 214.139 251.385H325.939V251.385Z" fill="#EDEDED"/>
<path d="M325.939 251.385C331.344 251.385 335.713 246.868 335.491 241.389C335.268 236.28 330.826 232.356 325.717 232.356H212.733C211.918 232.356 211.252 231.69 211.252 230.876C211.252 230.061 211.918 229.395 212.733 229.395H326.013C332.899 229.395 338.452 234.948 338.452 241.833C338.452 248.719 332.899 254.272 326.013 254.272H212.733C211.918 254.272 211.252 253.606 211.252 252.791C211.252 251.977 211.918 251.311 212.733 251.311H325.939V251.385Z" fill="#8F98FF"/>
<path d="M331.493 234.133L322.46 234.207L305.505 234.282L271.52 234.356L237.536 234.282L220.581 234.207L215.102 234.133C215.028 234.059 215.028 233.985 214.954 233.911L220.507 233.837L237.462 233.763L271.446 233.689L305.431 233.763L322.386 233.837L331.122 233.911C331.344 233.985 331.419 234.059 331.493 234.133ZM333.714 236.355C333.714 236.281 333.64 236.281 333.64 236.207L322.534 236.058L305.579 235.984L271.594 235.91L237.61 235.984L220.655 236.058L215.991 236.133C215.991 236.207 216.065 236.281 216.065 236.429L220.655 236.503L237.61 236.577L271.594 236.651L305.579 236.577L322.534 236.503L333.714 236.355ZM334.898 238.576C334.898 238.576 334.898 238.502 334.824 238.502L322.46 238.354L305.505 238.28L271.52 238.206L237.536 238.28L220.581 238.354L216.583 238.428C216.583 238.502 216.583 238.65 216.657 238.724L220.655 238.798L237.61 238.872L271.594 238.946L305.579 238.872L322.534 238.798L334.898 238.576ZM333.64 247.535C333.64 247.461 333.714 247.461 333.714 247.387L322.534 247.238L305.579 247.164L271.594 247.09L237.61 247.164L220.655 247.238L216.065 247.313C216.065 247.387 215.991 247.461 215.991 247.609L220.655 247.683L237.61 247.757L271.594 247.831L305.579 247.757L322.534 247.683L333.64 247.535ZM334.824 245.239C334.824 245.239 334.824 245.165 334.898 245.165L322.534 245.017L305.579 244.943L271.594 244.869L237.61 244.943L220.655 245.017L216.657 245.091C216.657 245.165 216.657 245.313 216.583 245.387L220.581 245.462L237.536 245.536L271.52 245.61L305.505 245.536L322.46 245.462L334.824 245.239ZM335.417 243.018V242.944L322.46 242.796L305.505 242.722L271.52 242.648L237.536 242.722L220.581 242.796L216.879 242.87C216.879 242.944 216.879 243.092 216.879 243.166L220.581 243.24L237.536 243.314L271.52 243.388L305.505 243.314L322.46 243.24L335.417 243.018ZM335.417 240.797V240.723L322.534 240.575L305.579 240.501L271.594 240.427L237.61 240.501L220.655 240.575L216.953 240.649C216.953 240.723 216.953 240.871 216.953 240.945L220.655 241.019L237.61 241.093L271.594 241.167L305.579 241.093L322.534 241.019L335.417 240.797Z" fill="#E1E3EF"/>
</svg>
