<svg width="153" height="119" viewBox="0 0 153 119" fill="none" xmlns="http://www.w3.org/2000/svg">
<g filter="url(#filter0_dd_3_539)">
<mask id="mask0_3_539" style="mask-type:alpha" maskUnits="userSpaceOnUse" x="0" y="0" width="149" height="119">
<path d="M0 16C0 7.16344 7.16344 0 16 0H133C141.837 0 149 7.16345 149 16V103C149 111.837 141.837 119 133 119H16C7.16344 119 0 111.837 0 103V16Z" fill="#FF7648"/>
</mask>
<g mask="url(#mask0_3_539)">
<path fill-rule="evenodd" clip-rule="evenodd" d="M144.144 -82.4032C159.404 -83.5438 178.242 -91.1142 188.869 -80.1032C199.871 -68.7034 189.661 -49.5693 191.064 -33.788C192.043 -22.7626 196.963 -12.7579 195.832 -1.74693C194.445 11.7609 192.631 25.7694 183.88 36.1529C173.722 48.2073 159.81 57.8423 144.144 59.5901C127.593 61.4365 109.65 57.0809 97.3977 45.8013C85.6392 34.976 85.3535 17.3308 81.4156 1.84035C77.7822 -12.4526 71.1334 -26.7636 75.3592 -40.8928C79.6294 -55.1708 91.2675 -66.0616 104.027 -73.7615C116.032 -81.0067 130.161 -81.358 144.144 -82.4032Z" fill="#FFC278"/>
</g>
</g>
<defs>
<filter id="filter0_dd_3_539" x="70" y="0" width="83" height="68" filterUnits="userSpaceOnUse" color-interpolation-filters="sRGB">
<feFlood flood-opacity="0" result="BackgroundImageFix"/>
<feColorMatrix in="SourceAlpha" type="matrix" values="0 0 0 0 0 0 0 0 0 0 0 0 0 0 0 0 0 0 127 0" result="hardAlpha"/>
<feOffset dy="4"/>
<feGaussianBlur stdDeviation="2"/>
<feComposite in2="hardAlpha" operator="out"/>
<feColorMatrix type="matrix" values="0 0 0 0 0 0 0 0 0 0 0 0 0 0 0 0 0 0 0.25 0"/>
<feBlend mode="normal" in2="BackgroundImageFix" result="effect1_dropShadow_3_539"/>
<feColorMatrix in="SourceAlpha" type="matrix" values="0 0 0 0 0 0 0 0 0 0 0 0 0 0 0 0 0 0 127 0" result="hardAlpha"/>
<feOffset dy="4"/>
<feGaussianBlur stdDeviation="2"/>
<feComposite in2="hardAlpha" operator="out"/>
<feColorMatrix type="matrix" values="0 0 0 0 0 0 0 0 0 0 0 0 0 0 0 0 0 0 0.25 0"/>
<feBlend mode="normal" in2="effect1_dropShadow_3_539" result="effect2_dropShadow_3_539"/>
<feBlend mode="normal" in="SourceGraphic" in2="effect2_dropShadow_3_539" result="shape"/>
</filter>
</defs>
</svg>
